<?xml version="1.0" encoding="UTF-8"?>
<svg width="18px" height="20px" viewBox="0 0 18 20" version="1.1" xmlns="http://www.w3.org/2000/svg" xmlns:xlink="http://www.w3.org/1999/xlink">
    <!-- Generator: Sketch 52.6 (67491) - http://www.bohemiancoding.com/sketch -->
    <title>Bar-graph</title>
    <desc>Created with Sketch.</desc>
    <g id="Homepage" stroke="none" stroke-width="1" fill="none" fill-rule="evenodd">
        <path d="M16.6881276,0 L14.2405356,0 C13.6259675,0 13.3505021,0.497333333 13.3505021,1.11111111 L13.3505021,20 L17.8006695,20 L17.8006695,1.11111111 C17.8006695,0.497333333 17.3026957,0 16.6881276,0 L16.6881276,0 Z M10.0128766,6.66666667 L7.56528452,6.66666667 C6.95071641,6.66666667 6.67525105,7.164 6.67525105,7.77777778 L6.67525105,20 L11.1254184,20 L11.1254184,7.77777778 C11.1254184,7.164 10.6274447,6.66666667 10.0128766,6.66666667 L10.0128766,6.66666667 Z M3.33762552,13.3333333 L0.890033473,13.3333333 C0.27546536,13.3333333 0,13.8306667 0,14.4444444 L0,20 L4.45016737,20 L4.45016737,14.4444444 C4.45016737,13.8306667 3.95219364,13.3333333 3.33762552,13.3333333 L3.33762552,13.3333333 Z" id="Bar-graph" fill="#EAEAEA"></path>
    </g>
</svg>